<svg xmlns="http://www.w3.org/2000/svg" width="591.134" height="235.196" viewBox="0 0 591.134 235.196">
  <g id="그룹_8" data-name="그룹 8" transform="translate(-80.306 -55.131)">
    <g id="그룹_4" data-name="그룹 4" transform="translate(85.691 135.055)">
      <path id="패스_1" data-name="패스 1" d="M130.074,82.9h27.175v77.7H173.7V82.9h27.174V69.438h-70.8Z" transform="translate(142.578 -69.438)" fill="#070304"/>
      <path id="패스_2" data-name="패스 2" d="M155.7,136.724c0,2.911-.654,5.151-1.944,6.659a6.939,6.939,0,0,1-5.648,2.229,4.631,4.631,0,0,1-3.827-1.709,16.471,16.471,0,0,1-2.637-5.358l-18.1-55.459a18.725,18.725,0,0,0-7.508-10.05,21.394,21.394,0,0,0-12.1-3.587,24.839,24.839,0,0,0-8.855,1.564,22.8,22.8,0,0,0-7.156,4.33,20.2,20.2,0,0,0-4.86,6.732,21.358,21.358,0,0,0-1.8,8.888V159.25H96.644V92.707a9.854,9.854,0,0,1,1.939-6.525,6.953,6.953,0,0,1,5.648-2.223A4.682,4.682,0,0,1,108,85.679a15.718,15.718,0,0,1,2.7,5.2l18.1,55.459a18.71,18.71,0,0,0,7.5,10.05,21.407,21.407,0,0,0,12.1,3.587,26.093,26.093,0,0,0,8.765-1.486,20.605,20.605,0,0,0,12.112-11.14,21.454,21.454,0,0,0,1.8-8.894V69.886H155.7Z" transform="translate(-81.27 -69.381)" fill="#070304"/>
      <path id="패스_3" data-name="패스 3" d="M114.561,71.528a22.656,22.656,0,0,0-8.643,5.6,22.219,22.219,0,0,0-4.927,8.352,32.279,32.279,0,0,0-1.553,10.056,22.663,22.663,0,0,0,.67,5.3,24.907,24.907,0,0,0,1.933,5.279,24.287,24.287,0,0,0,3.05,4.687,16.126,16.126,0,0,0,3.229,2.994,20.878,20.878,0,0,0-6.134,7.654,25.116,25.116,0,0,0-2.749,11.3,33.073,33.073,0,0,0,1.4,9.531,21.921,21.921,0,0,0,4.7,8.358,24.373,24.373,0,0,0,8.631,5.961,33.39,33.39,0,0,0,13.151,2.3h44.537V144.534H125.008a10.367,10.367,0,0,1-8.056-3.408,12.352,12.352,0,0,1-3.156-8.671,11.307,11.307,0,0,1,3.223-7.944,10.275,10.275,0,0,1,7.844-3.413h47V106.741H125.008a10.525,10.525,0,0,1-7.994-3.346,11.663,11.663,0,0,1,.006-16.1,10.254,10.254,0,0,1,7.844-3.408h47V69.528H127.327A36.088,36.088,0,0,0,114.561,71.528Z" transform="translate(2.06 -69.023)" fill="#070304"/>
      <path id="패스_4" data-name="패스 4" d="M176.963,69.528l-22.8,36.338-22.8-36.338H114.138l28.091,43.532-28.057,45.831h17.2l22.8-36.9,22.8,36.9h17.194L166.1,113.06l28.09-43.532Z" transform="translate(69.483 -69.022)" fill="#070304"/>
      <path id="패스_5" data-name="패스 5" d="M198,84.145h46.995V69.782H200.458a36.2,36.2,0,0,0-12.76,2,22.745,22.745,0,0,0-8.643,5.6,22.221,22.221,0,0,0-4.927,8.352,32.143,32.143,0,0,0-1.553,10.056,22.4,22.4,0,0,0,.67,5.3,24.911,24.911,0,0,0,1.933,5.279,24.285,24.285,0,0,0,3.05,4.687,16.318,16.318,0,0,0,3.229,3,20.9,20.9,0,0,0-6.134,7.648,25.044,25.044,0,0,0-2.749,11.3,32.883,32.883,0,0,0,1.4,9.531,21.88,21.88,0,0,0,4.7,8.358,24.372,24.372,0,0,0,8.631,5.961,33.379,33.379,0,0,0,13.145,2.3h44.537V144.788H198.14a10.336,10.336,0,0,1-8.05-3.408,12.342,12.342,0,0,1-3.156-8.671,11.293,11.293,0,0,1,3.223-7.944A10.254,10.254,0,0,1,198,121.358h46.995V106.995H198.14a10.517,10.517,0,0,1-7.989-3.341,11.409,11.409,0,0,1-3.218-8.157,11.293,11.293,0,0,1,3.223-7.944A10.254,10.254,0,0,1,198,84.145Z" transform="translate(337.514 -67.858)" fill="#070304"/>
      <path id="패스_6" data-name="패스 6" d="M172.645,71.782A22.81,22.81,0,0,0,164,77.38a22.281,22.281,0,0,0-4.922,8.352,32.12,32.12,0,0,0-1.559,10.056,22.738,22.738,0,0,0,.67,5.3,25.006,25.006,0,0,0,1.939,5.279,24.283,24.283,0,0,0,3.05,4.687,16.289,16.289,0,0,0,3.223,3,20.89,20.89,0,0,0-6.128,7.648,25.05,25.05,0,0,0-2.754,11.3,32.888,32.888,0,0,0,1.408,9.531,21.8,21.8,0,0,0,4.7,8.358,24.473,24.473,0,0,0,8.631,5.961,33.427,33.427,0,0,0,13.151,2.3h44.537V144.788H183.086a10.355,10.355,0,0,1-8.05-3.408,12.342,12.342,0,0,1-3.156-8.671,11.293,11.293,0,0,1,3.224-7.944,10.25,10.25,0,0,1,7.838-3.408h47V106.995H183.086a10.517,10.517,0,0,1-7.989-3.341,11.39,11.39,0,0,1-3.218-8.157,11.155,11.155,0,0,1,3.224-7.944,10.25,10.25,0,0,1,7.838-3.408h47V69.782H185.4A36.181,36.181,0,0,0,172.645,71.782Z" transform="translate(268.443 -67.858)" fill="#070304"/>
      <path id="패스_7" data-name="패스 7" d="M214.1,95.159c-.279-8.481-3.693-15.1-10.14-19.676-5.313-4.011-12.257-6.045-20.626-6.045H143.911v91.168h16.38V122.215h18.145l20.5,38.391H218.4l-23.2-40.174C207.56,115.885,213.917,107.394,214.1,95.159Zm-15.559.022a12.581,12.581,0,0,1-3.966,9.391c-2.676,2.732-6.782,4.156-12.2,4.24H160.291V82.9H183.2c4.643,0,8.223.888,10.671,2.665C196.917,87.555,198.448,90.7,198.537,95.181Z" transform="translate(206.042 -69.436)" fill="#070304"/>
    </g>
    <path id="패스_8" data-name="패스 8" d="M263.626,87.244h18.6S241.039,143.038,173.3,143.038c-65.1,0-92.99-42.509-92.99-42.509s34.559,36.107,95.643,30.553C234.4,125.77,263.626,87.244,263.626,87.244Z" transform="translate(0 147.289)" fill="#8c1240"/>
    <path id="패스_9" data-name="패스 9" d="M126.435,125.6h17.274S198.1,60.766,296.47,64.5c104.945,3.983,163.393,61.1,163.393,61.1S392.13,57.28,296.47,55.2C174.257,52.548,126.435,125.6,126.435,125.6Z" transform="translate(211.577)" fill="#00346c"/>
  </g>
</svg>
